<?xml version="1.0" encoding="UTF-8"?>
<svg xmlns="http://www.w3.org/2000/svg" xmlns:xlink="http://www.w3.org/1999/xlink" width="36px" height="41px" viewBox="0 0 36 40" version="1.1">
<g id="surface1">
<path style=" stroke:none;fill-rule:nonzero;fill:rgb(63.137257%,47.450981%,86.274511%);fill-opacity:1;" d="M 35.839844 11.839844 C 35.839844 11.175781 35.695312 10.585938 35.402344 10.082031 C 35.117188 9.585938 34.6875 9.167969 34.113281 8.839844 C 29.363281 6.132812 24.605469 3.4375 19.859375 0.730469 C 18.578125 0 17.335938 0.0273438 16.066406 0.765625 C 14.175781 1.867188 4.707031 7.222656 1.886719 8.839844 C 0.726562 9.503906 0.160156 10.519531 0.160156 11.839844 C 0.15625 17.28125 0.160156 22.71875 0.15625 28.160156 C 0.15625 28.8125 0.296875 29.386719 0.574219 29.886719 C 0.863281 30.398438 1.296875 30.824219 1.886719 31.160156 C 4.707031 32.773438 14.175781 38.132812 16.066406 39.234375 C 17.335938 39.972656 18.578125 40 19.859375 39.269531 C 24.609375 36.5625 29.363281 33.863281 34.113281 31.160156 C 34.703125 30.824219 35.136719 30.394531 35.425781 29.882812 C 35.703125 29.386719 35.84375 28.808594 35.84375 28.160156 C 35.84375 28.160156 35.84375 17.28125 35.839844 11.839844 "/>
<path style=" stroke:none;fill-rule:nonzero;fill:rgb(15.686275%,0%,40.784314%);fill-opacity:1;" d="M 18.054688 19.945312 L 0.574219 29.886719 C 0.863281 30.398438 1.296875 30.824219 1.886719 31.160156 C 4.707031 32.773438 14.175781 38.132812 16.066406 39.234375 C 17.335938 39.972656 18.578125 40 19.859375 39.269531 C 24.609375 36.5625 29.363281 33.863281 34.113281 31.160156 C 34.703125 30.824219 35.136719 30.394531 35.425781 29.882812 Z M 18.054688 19.945312 "/>
<path style=" stroke:none;fill-rule:nonzero;fill:rgb(22.352941%,0%,56.862748%);fill-opacity:1;" d="M 35.839844 11.839844 C 35.839844 11.175781 35.695312 10.585938 35.402344 10.082031 L 18.054688 19.945312 L 35.425781 29.882812 C 35.703125 29.386719 35.839844 28.808594 35.84375 28.160156 C 35.84375 28.160156 35.84375 17.28125 35.839844 11.839844 "/>
<path style=" stroke:none;fill-rule:nonzero;fill:rgb(100%,100%,100%);fill-opacity:1;" d="M 28.347656 16.230469 L 28.347656 18.089844 L 30.226562 18.089844 L 30.226562 16.230469 L 31.167969 16.230469 L 31.167969 18.089844 L 33.046875 18.089844 L 33.046875 19.019531 L 31.167969 19.019531 L 31.167969 20.875 L 33.046875 20.875 L 33.046875 21.804688 L 31.167969 21.804688 L 31.167969 23.664062 L 30.226562 23.664062 L 30.226562 21.804688 L 28.347656 21.804688 L 28.347656 23.664062 L 27.40625 23.664062 L 27.40625 21.804688 L 25.523438 21.804688 L 25.523438 20.875 L 27.40625 20.875 L 27.40625 19.019531 L 25.523438 19.019531 L 25.523438 18.089844 L 27.40625 18.089844 L 27.40625 16.230469 Z M 30.226562 19.019531 L 28.347656 19.019531 L 28.347656 20.875 L 30.226562 20.875 Z M 30.226562 19.019531 "/>
<path style=" stroke:none;fill-rule:nonzero;fill:rgb(100%,100%,100%);fill-opacity:1;" d="M 18.09375 6.902344 C 23 6.902344 27.285156 9.53125 29.578125 13.445312 L 29.554688 13.40625 L 23.78125 16.691406 C 22.644531 14.789062 20.558594 13.503906 18.167969 13.476562 L 18.09375 13.476562 C 14.445312 13.476562 11.488281 16.398438 11.488281 20 C 11.488281 21.136719 11.789062 22.25 12.359375 23.234375 C 13.496094 25.199219 15.636719 26.523438 18.09375 26.523438 C 20.5625 26.523438 22.714844 25.183594 23.847656 23.199219 L 23.820312 23.246094 L 29.585938 26.542969 C 27.316406 30.421875 23.089844 33.046875 18.242188 33.097656 L 18.09375 33.097656 C 13.171875 33.097656 8.875 30.449219 6.585938 26.519531 C 5.46875 24.597656 4.828125 22.375 4.828125 20 C 4.828125 12.765625 10.765625 6.902344 18.09375 6.902344 Z M 18.09375 6.902344 "/>
</g>
</svg>
