<?xml version="1.0" encoding="UTF-8"?>
<svg xmlns="http://www.w3.org/2000/svg" xmlns:xlink="http://www.w3.org/1999/xlink" width="40px" height="40px" viewBox="0 0 40 40" version="1.1">
<g id="surface1">
<path style=" stroke:none;fill-rule:nonzero;fill:rgb(0%,76.862746%,70.19608%);fill-opacity:1;" d="M 10.703125 10.773438 L 8.144531 8.214844 L 8.144531 26.667969 L 8.179688 27.53125 C 8.179688 27.929688 8.253906 28.394531 8.394531 28.863281 L 28.648438 36 L 33.695312 33.765625 Z M 10.703125 10.773438 "/>
<path style=" stroke:none;fill-rule:nonzero;fill:rgb(13.333334%,82.745099%,77.254903%);fill-opacity:1;" d="M 8.394531 28.863281 Z M 33.695312 33.765625 L 28.648438 36 L 8.433594 28.863281 C 8.828125 30.34375 9.65625 32 10.59375 32.9375 L 17.1875 39.496094 L 31.890625 39.53125 Z M 33.695312 33.765625 "/>
<path style=" stroke:none;fill-rule:nonzero;fill:rgb(0%,45.882353%,78.823531%);fill-opacity:1;" d="M 8.214844 8.214844 L 0.359375 20.109375 C -0.289062 20.792969 0.0351562 22.234375 1.082031 23.316406 L 5.621094 27.890625 L 8.46875 28.902344 C 8.359375 28.433594 8.253906 27.964844 8.253906 27.566406 L 8.214844 26.703125 Z M 8.214844 8.214844 "/>
<path style=" stroke:none;fill-rule:nonzero;fill:rgb(0%,45.882353%,78.823531%);fill-opacity:1;" d="M 28.792969 8.433594 C 28.324219 8.324219 27.855469 8.253906 27.460938 8.214844 L 26.558594 8.179688 L 8.144531 8.179688 L 33.695312 33.730469 L 35.929688 28.683594 Z M 28.792969 8.433594 "/>
<path style=" stroke:none;fill-rule:nonzero;fill:rgb(0%,65.882355%,88.235295%);fill-opacity:1;" d="M 28.757812 8.433594 C 28.792969 8.433594 28.792969 8.433594 28.757812 8.433594 C 28.792969 8.433594 28.792969 8.433594 28.757812 8.433594 Z M 32.863281 10.59375 C 31.929688 9.65625 30.304688 8.792969 28.792969 8.433594 L 35.929688 28.683594 L 33.695312 33.730469 L 39.171875 31.964844 L 39.171875 16.9375 Z M 32.863281 10.59375 "/>
<path style=" stroke:none;fill-rule:nonzero;fill:rgb(0%,76.862746%,70.19608%);fill-opacity:1;" d="M 27.785156 5.621094 L 23.207031 1.082031 C 22.164062 0.0351562 20.722656 -0.289062 20 0.359375 L 8.109375 8.214844 L 26.523438 8.214844 L 27.421875 8.253906 C 27.820312 8.253906 28.289062 8.324219 28.757812 8.46875 Z M 27.785156 5.621094 "/>
</g>
</svg>
