<?xml version="1.0" encoding="UTF-8"?>
<svg xmlns="http://www.w3.org/2000/svg" xmlns:xlink="http://www.w3.org/1999/xlink" width="38px" height="40px" viewBox="0 0 38 39" version="1.1">
<g id="surface1">
<path style=" stroke:none;fill-rule:nonzero;fill:rgb(33.333334%,33.333334%,53.333336%);fill-opacity:1;" d="M 5.441406 16.371094 C 5.441406 15.824219 5.25 15.429688 4.867188 15.199219 C 4.488281 14.964844 3.945312 14.851562 3.222656 14.851562 L 3.222656 12.816406 C 3.582031 12.816406 3.898438 12.792969 4.175781 12.742188 C 4.460938 12.683594 4.695312 12.59375 4.886719 12.476562 C 5.078125 12.351562 5.21875 12.191406 5.3125 12 C 5.410156 11.808594 5.453125 11.574219 5.441406 11.300781 L 5.441406 8.597656 C 5.441406 8.175781 5.496094 7.820312 5.609375 7.523438 C 5.71875 7.226562 5.925781 6.96875 6.199219 6.792969 C 6.488281 6.601562 6.878906 6.457031 7.367188 6.367188 C 7.859375 6.277344 8.484375 6.230469 9.238281 6.230469 L 9.238281 8.144531 C 9.007812 8.152344 8.796875 8.171875 8.605469 8.207031 C 8.421875 8.238281 8.265625 8.300781 8.128906 8.394531 C 8.003906 8.476562 7.90625 8.597656 7.835938 8.75 C 7.765625 8.902344 7.734375 9.101562 7.734375 9.34375 L 7.734375 11.890625 C 7.699219 12.949219 7.023438 13.578125 5.707031 13.777344 L 5.707031 13.878906 C 6.371094 13.976562 6.878906 14.179688 7.226562 14.492188 C 7.574219 14.804688 7.746094 15.226562 7.734375 15.761719 L 7.734375 18.304688 C 7.734375 18.550781 7.765625 18.746094 7.835938 18.902344 C 7.90625 19.054688 8.003906 19.171875 8.128906 19.257812 C 8.261719 19.347656 8.425781 19.410156 8.605469 19.445312 C 8.816406 19.480469 9.027344 19.5 9.238281 19.503906 L 9.238281 21.425781 C 8.480469 21.425781 7.859375 21.386719 7.367188 21.292969 C 6.878906 21.195312 6.488281 21.058594 6.199219 20.867188 C 5.925781 20.691406 5.71875 20.433594 5.609375 20.132812 C 5.5 19.832031 5.441406 19.472656 5.441406 19.054688 L 5.441406 16.375 M 10.367188 17.453125 C 10.367188 17.1875 10.410156 16.964844 10.480469 16.78125 C 10.566406 16.59375 10.671875 16.445312 10.8125 16.332031 C 10.949219 16.21875 11.105469 16.136719 11.296875 16.082031 C 11.488281 16.03125 11.691406 16.003906 11.894531 16.007812 C 12.085938 16.003906 12.277344 16.03125 12.464844 16.082031 C 12.648438 16.136719 12.8125 16.214844 12.949219 16.332031 C 13.085938 16.445312 13.199219 16.59375 13.277344 16.78125 C 13.363281 16.964844 13.398438 17.1875 13.398438 17.453125 C 13.398438 17.707031 13.359375 17.925781 13.277344 18.109375 C 13.199219 18.289062 13.089844 18.441406 12.949219 18.558594 C 12.808594 18.679688 12.644531 18.765625 12.464844 18.816406 C 12.285156 18.871094 12.09375 18.902344 11.894531 18.902344 C 11.679688 18.902344 11.480469 18.871094 11.296875 18.816406 C 11.117188 18.765625 10.949219 18.679688 10.8125 18.558594 C 10.667969 18.4375 10.554688 18.28125 10.480469 18.109375 C 10.40625 17.929688 10.367188 17.710938 10.367188 17.453125 M 15.253906 22.859375 C 14.964844 22.859375 14.679688 22.839844 14.394531 22.800781 C 14.101562 22.761719 13.855469 22.710938 13.660156 22.648438 L 13.660156 20.605469 C 13.824219 20.660156 13.992188 20.699219 14.164062 20.722656 C 14.320312 20.753906 14.492188 20.765625 14.691406 20.765625 C 14.828125 20.765625 14.964844 20.746094 15.097656 20.699219 C 15.230469 20.65625 15.347656 20.578125 15.433594 20.46875 C 15.53125 20.359375 15.609375 20.214844 15.667969 20.027344 C 15.726562 19.84375 15.753906 19.609375 15.753906 19.320312 L 15.753906 9.15625 L 18.394531 9.15625 L 18.394531 19.695312 C 18.394531 20.132812 18.339844 20.539062 18.226562 20.921875 C 18.117188 21.308594 17.933594 21.640625 17.683594 21.925781 C 17.433594 22.214844 17.109375 22.441406 16.710938 22.605469 C 16.3125 22.769531 15.828125 22.851562 15.257812 22.851562 M 15.648438 6.695312 C 15.648438 6.449219 15.6875 6.25 15.761719 6.089844 C 15.828125 5.9375 15.929688 5.804688 16.0625 5.699219 C 16.199219 5.597656 16.355469 5.523438 16.523438 5.488281 C 16.707031 5.445312 16.894531 5.425781 17.085938 5.425781 C 17.269531 5.425781 17.457031 5.445312 17.640625 5.488281 C 17.808594 5.527344 17.960938 5.597656 18.089844 5.699219 C 18.222656 5.796875 18.324219 5.925781 18.402344 6.089844 C 18.484375 6.25 18.523438 6.449219 18.523438 6.695312 C 18.523438 6.933594 18.480469 7.132812 18.402344 7.296875 C 18.324219 7.464844 18.222656 7.597656 18.089844 7.699219 C 17.960938 7.796875 17.8125 7.867188 17.640625 7.910156 C 17.46875 7.953125 17.28125 7.972656 17.085938 7.972656 C 16.894531 7.972656 16.707031 7.953125 16.523438 7.910156 C 16.355469 7.871094 16.203125 7.796875 16.0625 7.699219 C 15.9375 7.597656 15.835938 7.464844 15.761719 7.296875 C 15.683594 7.132812 15.648438 6.933594 15.648438 6.695312 M 27.570312 15.84375 C 27.570312 16.34375 27.476562 16.78125 27.292969 17.15625 C 27.113281 17.527344 26.84375 17.847656 26.507812 18.09375 C 26.164062 18.339844 25.753906 18.527344 25.269531 18.652344 C 24.78125 18.777344 24.238281 18.839844 23.640625 18.839844 C 23.324219 18.839844 23.027344 18.828125 22.757812 18.804688 C 22.5 18.789062 22.242188 18.757812 21.988281 18.710938 L 21.285156 18.546875 C 21.050781 18.476562 20.824219 18.390625 20.601562 18.289062 L 20.601562 16.140625 C 20.84375 16.257812 21.097656 16.367188 21.363281 16.464844 L 22.167969 16.71875 L 22.9375 16.882812 C 23.195312 16.925781 23.425781 16.945312 23.640625 16.945312 C 23.875 16.945312 24.078125 16.925781 24.246094 16.882812 C 24.394531 16.851562 24.53125 16.789062 24.652344 16.707031 C 24.753906 16.636719 24.835938 16.542969 24.886719 16.433594 C 24.9375 16.324219 24.964844 16.210938 24.964844 16.09375 C 24.964844 15.972656 24.945312 15.871094 24.90625 15.777344 C 24.871094 15.683594 24.785156 15.582031 24.652344 15.480469 C 24.519531 15.371094 24.324219 15.253906 24.066406 15.125 L 23.035156 14.625 L 21.933594 14.074219 C 21.628906 13.886719 21.375 13.679688 21.171875 13.453125 C 20.976562 13.222656 20.828125 12.964844 20.730469 12.675781 C 20.632812 12.386719 20.582031 12.03125 20.582031 11.628906 C 20.582031 11.1875 20.667969 10.800781 20.84375 10.46875 C 21.011719 10.132812 21.265625 9.855469 21.578125 9.640625 C 21.894531 9.421875 22.277344 9.253906 22.722656 9.140625 C 23.171875 9.027344 23.671875 8.976562 24.21875 8.976562 C 24.796875 8.976562 25.34375 9.039062 25.863281 9.171875 C 26.382812 9.300781 26.917969 9.496094 27.46875 9.757812 L 26.664062 11.617188 C 26.257812 11.425781 25.839844 11.257812 25.410156 11.113281 C 25.011719 10.984375 24.613281 10.917969 24.214844 10.917969 C 23.855469 10.917969 23.597656 10.980469 23.4375 11.105469 C 23.28125 11.230469 23.203125 11.394531 23.203125 11.617188 C 23.203125 11.730469 23.222656 11.832031 23.261719 11.921875 C 23.304688 12.007812 23.382812 12.097656 23.503906 12.195312 C 23.625 12.285156 23.800781 12.386719 24.011719 12.5 L 24.867188 12.902344 L 25.976562 13.425781 C 26.304688 13.59375 26.589844 13.792969 26.820312 14.015625 C 27.054688 14.234375 27.242188 14.492188 27.367188 14.789062 C 27.492188 15.082031 27.558594 15.441406 27.558594 15.859375 M 32.269531 19.054688 C 32.269531 19.472656 32.214844 19.832031 32.101562 20.132812 C 31.988281 20.433594 31.792969 20.679688 31.503906 20.867188 C 31.222656 21.058594 30.835938 21.199219 30.34375 21.292969 C 29.851562 21.382812 29.230469 21.425781 28.472656 21.425781 L 28.472656 19.5 C 28.683594 19.496094 28.890625 19.476562 29.097656 19.441406 C 29.28125 19.40625 29.4375 19.34375 29.5625 19.253906 C 29.699219 19.167969 29.804688 19.042969 29.867188 18.894531 C 29.941406 18.742188 29.980469 18.542969 29.980469 18.300781 L 29.980469 15.757812 C 29.964844 15.222656 30.128906 14.800781 30.488281 14.488281 C 30.84375 14.175781 31.34375 13.972656 32.007812 13.875 L 32.007812 13.773438 C 30.695312 13.574219 30.023438 12.945312 29.988281 11.882812 L 29.988281 9.339844 C 29.988281 9.097656 29.949219 8.898438 29.875 8.746094 C 29.8125 8.597656 29.707031 8.476562 29.574219 8.386719 C 29.445312 8.296875 29.289062 8.234375 29.105469 8.199219 C 28.898438 8.164062 28.691406 8.144531 28.484375 8.140625 L 28.484375 6.226562 C 29.242188 6.226562 29.863281 6.269531 30.351562 6.363281 C 30.84375 6.457031 31.230469 6.59375 31.511719 6.789062 C 31.800781 6.976562 32 7.21875 32.109375 7.519531 C 32.21875 7.808594 32.28125 8.171875 32.28125 8.59375 L 32.28125 11.296875 C 32.273438 11.570312 32.320312 11.800781 32.410156 11.996094 C 32.496094 12.1875 32.644531 12.347656 32.835938 12.472656 C 33.023438 12.589844 33.257812 12.679688 33.535156 12.734375 C 33.816406 12.785156 34.140625 12.8125 34.496094 12.8125 L 34.496094 14.84375 C 33.777344 14.84375 33.222656 14.960938 32.84375 15.195312 C 32.460938 15.425781 32.28125 15.816406 32.28125 16.367188 L 32.28125 19.046875 "/>
<path style="fill-rule:nonzero;fill:rgb(0%,0%,0%);fill-opacity:1;stroke-width:1;stroke-linecap:butt;stroke-linejoin:miter;stroke:rgb(0%,0%,0%);stroke-opacity:1;stroke-miterlimit:4;" d="M 6.744449 83.417468 C 6.448396 83.417468 6.18935 83.398638 5.967311 83.360978 C 5.73602 83.323317 5.550987 83.276242 5.384457 83.210337 L 5.384457 81.798077 C 5.597245 81.854567 5.810033 81.892228 6.022821 81.920473 C 6.272615 81.958133 6.513158 81.976963 6.762952 81.976963 C 6.984992 81.976963 7.19778 81.948718 7.410567 81.892228 C 7.632607 81.835737 7.836143 81.732171 8.011924 81.590946 C 8.196957 81.440304 8.335732 81.242588 8.446752 80.978966 C 8.567023 80.72476 8.622533 80.395232 8.622533 79.9998 L 8.622533 67.148237 L 10.260074 67.148237 L 10.260074 79.820913 C 10.260074 80.442308 10.176809 80.969551 10.001028 81.421474 C 9.84375 81.845152 9.603207 82.23117 9.2794 82.541867 C 8.964844 82.843149 8.585526 83.069111 8.169202 83.200921 C 7.743627 83.342147 7.160773 83.417468 6.633429 83.417468 M 18.429276 78.662861 L 18.364515 78.662861 C 18.188734 78.907652 17.994449 79.133614 17.781661 79.35016 C 17.587377 79.538462 17.374589 79.689103 17.143298 79.811498 C 16.902755 79.943309 16.652961 80.03746 16.384663 80.084535 C 16.097862 80.150441 15.774054 80.178686 15.403988 80.178686 C 15.006168 80.178686 14.62685 80.11278 14.293791 79.9998 C 13.960732 79.896234 13.655428 79.717348 13.405633 79.481971 C 13.155839 79.237179 12.961554 78.945312 12.82278 78.58754 C 12.684005 78.220353 12.619243 77.78726 12.619243 77.297676 C 12.619243 76.33734 12.961554 75.602965 13.618421 75.085136 C 14.303043 74.567308 15.320724 74.294271 16.717722 74.247196 L 18.33676 74.18129 L 18.33676 73.578726 C 18.33676 73.183293 18.290502 72.853766 18.197985 72.590144 C 18.11472 72.326522 17.994449 72.119391 17.827919 71.959335 C 17.670641 71.789864 17.457854 71.667468 17.235814 71.601562 C 16.967516 71.535657 16.699219 71.497997 16.421669 71.497997 C 15.959087 71.497997 15.505757 71.563902 15.061678 71.714543 C 14.645354 71.846354 14.247533 72.02524 13.858964 72.222957 L 13.294613 71.017829 C 13.729441 70.782452 14.210526 70.584736 14.747122 70.415264 C 15.292969 70.255208 15.857319 70.170473 16.421669 70.170473 C 17.023026 70.170473 17.541118 70.236378 17.975946 70.358774 C 18.410773 70.471755 18.771587 70.669471 19.049137 70.923678 C 19.345189 71.196715 19.567229 71.545072 19.696752 71.921675 C 19.835526 72.326522 19.891036 72.816106 19.891036 73.390425 L 19.891036 79.9998 L 18.753084 79.9998 Z M 15.829564 78.879407 C 16.171875 78.879407 16.504934 78.822917 16.81949 78.709936 C 17.124794 78.60637 17.393092 78.436899 17.615132 78.210938 C 17.837171 77.984976 18.012952 77.702524 18.133224 77.363582 C 18.262747 77.015224 18.327508 76.610377 18.327508 76.149038 L 18.327508 75.273438 L 17.069285 75.339343 C 16.541941 75.358173 16.097862 75.424079 15.746299 75.518229 C 15.385485 75.61238 15.098684 75.744191 14.885896 75.913662 C 14.68236 76.073718 14.515831 76.280849 14.423314 76.516226 C 14.330798 76.770433 14.275288 77.04347 14.284539 77.316506 C 14.284539 77.853165 14.423314 78.248598 14.710115 78.502804 C 14.996916 78.757011 15.366982 78.879407 15.829564 78.879407 M 21.251028 70.349359 L 22.907072 70.349359 L 24.655633 75.715946 L 24.886924 76.469151 L 25.14597 77.401242 L 25.386513 78.295673 L 25.534539 78.935897 L 25.599301 78.935897 L 25.747327 78.295673 L 25.978618 77.401242 L 26.246916 76.469151 L 26.478207 75.715946 L 28.226768 70.349359 L 29.882812 70.349359 L 26.570724 79.9998 L 24.544613 79.9998 Z M 36.405222 78.662861 L 36.340461 78.662861 C 36.164679 78.907652 35.970395 79.133614 35.757607 79.35016 C 35.369038 79.726763 34.887952 79.98097 34.360609 80.084535 C 34.073808 80.150441 33.75 80.178686 33.379934 80.178686 C 32.982113 80.178686 32.612048 80.11278 32.269737 79.9998 C 31.936678 79.896234 31.631373 79.717348 31.381579 79.481971 C 31.131785 79.237179 30.9375 78.945312 30.798725 78.58754 C 30.659951 78.220353 30.604441 77.78726 30.604441 77.297676 C 30.604441 76.33734 30.9375 75.602965 31.603618 75.085136 C 32.278988 74.567308 33.296669 74.294271 34.693668 74.247196 L 36.312706 74.18129 L 36.312706 73.578726 C 36.312706 73.183293 36.266447 72.853766 36.183183 72.590144 C 36.099918 72.326522 35.970395 72.119391 35.813117 71.959335 C 35.646587 71.789864 35.433799 71.667468 35.21176 71.601562 C 34.943462 71.535657 34.675164 71.497997 34.397615 71.497997 C 33.944285 71.497997 33.481702 71.563902 33.037623 71.714543 C 32.630551 71.846354 32.223479 72.02524 31.83491 72.222957 L 31.270559 71.017829 C 31.705387 70.782452 32.186472 70.584736 32.723067 70.415264 C 33.268914 70.255208 33.833265 70.170473 34.406867 70.170473 C 34.998972 70.170473 35.517064 70.236378 35.951891 70.358774 C 36.386719 70.471755 36.747533 70.669471 37.034334 70.923678 C 37.330387 71.196715 37.543174 71.545072 37.672697 71.921675 C 37.811472 72.326522 37.876234 72.816106 37.876234 73.390425 L 37.876234 79.9998 L 36.719778 79.9998 Z M 33.80551 78.879407 C 34.147821 78.888822 34.48088 78.832332 34.804688 78.719351 C 35.10074 78.615785 35.369038 78.436899 35.591077 78.220353 C 35.813117 77.984976 35.988898 77.702524 36.109169 77.363582 C 36.238692 77.015224 36.303454 76.610377 36.303454 76.149038 L 36.303454 75.282853 L 35.04523 75.339343 C 34.517887 75.367588 34.073808 75.424079 33.722245 75.518229 C 33.361431 75.61238 33.07463 75.744191 32.861842 75.913662 C 32.658306 76.083133 32.501028 76.280849 32.39926 76.525641 C 32.306743 76.779848 32.260485 77.052885 32.260485 77.325921 C 32.260485 77.86258 32.39926 78.258013 32.686061 78.51222 C 32.972862 78.757011 33.342928 78.888822 33.80551 78.888822 M 47.738487 76.563301 C 47.738487 77.128205 47.636719 77.646034 47.433183 78.097957 C 47.238898 78.53105 46.942845 78.926482 46.57278 79.227764 C 46.193462 79.529046 45.740132 79.773838 45.203536 79.943309 C 44.666941 80.09395 44.056332 80.178686 43.380962 80.178686 C 42.770354 80.178686 42.159745 80.131611 41.558388 80.01863 C 40.994038 79.915064 40.522204 79.764423 40.142887 79.566707 L 40.142887 78.003806 L 40.818257 78.286258 L 41.613898 78.521635 L 42.483553 78.700521 C 42.779605 78.738181 43.075658 78.757011 43.371711 78.766426 C 44.315378 78.766426 45.009252 78.58754 45.453331 78.239183 C 45.89741 77.88141 46.128701 77.382412 46.128701 76.723357 C 46.128701 76.440905 46.082442 76.158454 45.989926 75.894832 C 45.915913 75.659455 45.767887 75.452324 45.545847 75.254607 C 45.342311 75.056891 45.05551 74.859175 44.694696 74.689704 C 44.250617 74.454327 43.806538 74.256611 43.334704 74.077724 C 42.86287 73.898838 42.409539 73.672877 41.974712 73.409255 C 41.595395 73.164463 41.280839 72.891426 41.031044 72.580729 C 40.78125 72.279447 40.596217 71.93109 40.475946 71.545072 C 40.355674 71.159054 40.300164 70.725962 40.300164 70.226963 C 40.300164 69.71855 40.392681 69.257212 40.577714 68.852364 C 40.762747 68.456931 41.031044 68.108574 41.364104 67.826122 C 41.724918 67.534255 42.141242 67.317708 42.585321 67.185897 C 43.057155 67.044671 43.575247 66.969351 44.148849 66.969351 C 44.842722 66.969351 45.471834 67.035256 46.026933 67.167067 C 46.582031 67.298878 47.08162 67.468349 47.507196 67.666066 L 46.905839 69.040665 C 46.526521 68.871194 46.091694 68.720553 45.610609 68.598157 C 45.120271 68.466346 44.620683 68.409856 44.111842 68.409856 C 43.399465 68.409856 42.844367 68.569912 42.455798 68.908854 C 42.057977 69.238381 41.835938 69.727965 41.854441 70.245793 C 41.854441 70.575321 41.900699 70.867188 41.983964 71.111979 C 42.085732 71.366186 42.233758 71.592147 42.428043 71.771034 C 42.631579 71.96875 42.899877 72.147636 43.223684 72.326522 C 43.565995 72.495994 43.982319 72.67488 44.472656 72.872596 C 44.953742 73.060897 45.425576 73.277444 45.869655 73.522236 C 46.248972 73.719952 46.582031 73.974159 46.887336 74.275441 C 47.155633 74.557893 47.359169 74.88742 47.488692 75.254607 C 47.627467 75.621795 47.70148 76.073718 47.70148 76.582131 M 53.659539 80.178686 C 53.067434 80.178686 52.512336 80.07512 51.994243 79.905649 C 51.485403 79.717348 51.022821 79.416066 50.652755 79.020633 C 50.273437 78.615785 49.968133 78.107372 49.755345 77.485978 C 49.542558 76.855168 49.431538 76.101963 49.431538 75.226362 C 49.431538 74.303686 49.533306 73.522236 49.764597 72.891426 C 49.986637 72.241787 50.291941 71.723958 50.68051 71.319111 C 51.059827 70.923678 51.531661 70.622396 52.049753 70.44351 C 52.567845 70.264623 53.132196 70.170473 53.733553 70.170473 C 54.177632 70.170473 54.630962 70.217548 55.065789 70.321114 C 55.445107 70.396434 55.815173 70.51883 56.166735 70.688301 L 55.68565 72.044071 C 55.556127 71.978165 55.4081 71.93109 55.241571 71.874599 C 55.075041 71.818109 54.908512 71.771034 54.741982 71.723958 C 54.566201 71.676883 54.390419 71.639223 54.22389 71.620393 C 54.05736 71.592147 53.900082 71.573317 53.733553 71.573317 C 52.81764 71.573317 52.14227 71.874599 51.725946 72.467748 C 51.30037 73.051482 51.087582 73.964744 51.087582 75.207532 C 51.087582 76.440905 51.291118 77.344752 51.725946 77.919071 C 52.151521 78.493389 52.799137 78.775841 53.668791 78.775841 C 54.103618 78.775841 54.529194 78.728766 54.945518 78.615785 C 55.315584 78.51222 55.667146 78.380409 56.009457 78.229768 L 56.009457 79.651442 C 55.68565 79.830329 55.343339 79.952724 54.982525 80.03746 C 54.630962 80.131611 54.16838 80.169271 53.641036 80.169271 M 62.411595 70.170473 L 62.985197 70.198718 C 63.17023 70.208133 63.346012 70.226963 63.531044 70.264623 L 63.327508 71.742788 L 62.827919 71.667468 C 62.66139 71.648638 62.49486 71.629808 62.346834 71.629808 C 61.976768 71.629808 61.634457 71.714543 61.347656 71.865184 C 61.0331 72.015825 60.764803 72.232372 60.552015 72.505409 C 60.320724 72.806691 60.154194 73.145633 60.052426 73.503405 C 59.932155 73.927083 59.876645 74.360176 59.876645 74.802684 L 59.876645 79.9998 L 58.27611 79.9998 L 58.27611 70.349359 L 59.580592 70.349359 L 59.774877 72.119391 L 59.839638 72.119391 L 60.311472 71.385016 C 60.46875 71.159054 60.663035 70.951923 60.866571 70.773037 C 61.079359 70.594151 61.319901 70.44351 61.569696 70.339944 C 61.856497 70.226963 62.171053 70.170473 62.476357 70.170473 M 66.898643 79.9998 L 65.298109 79.9998 L 65.298109 70.349359 L 66.898643 70.349359 L 66.898643 79.9998 M 65.436883 66.978766 C 65.621916 66.81871 65.862459 66.733974 66.112253 66.733974 C 66.232525 66.733974 66.352796 66.752804 66.463816 66.79988 C 66.584087 66.828125 66.685855 66.89403 66.76912 66.978766 C 66.861637 67.063502 66.926398 67.176482 66.972656 67.289463 C 67.018914 67.411859 67.046669 67.5625 67.046669 67.741386 C 67.046669 68.080329 66.954153 68.334535 66.76912 68.504006 C 66.584087 68.673478 66.371299 68.748798 66.112253 68.748798 C 65.853207 68.748798 65.612664 68.626402 65.436883 68.466346 C 65.261102 68.296875 65.177837 68.042668 65.177837 67.722556 C 65.177837 67.393029 65.279605 67.129407 65.436883 66.978766 Z M 74.244449 80.178686 C 73.929893 80.178686 73.615337 80.141026 73.300781 80.065705 C 73.023232 79.98097 72.773438 79.886819 72.542146 79.764423 C 72.320107 79.632612 72.125822 79.481971 71.940789 79.3125 C 71.77426 79.143029 71.626234 78.964143 71.487459 78.775841 L 71.376439 78.775841 L 71.431949 79.35016 L 71.468956 79.820913 L 71.487459 80.197516 L 71.487459 84.321314 L 69.886924 84.321314 L 69.886924 70.349359 L 71.182155 70.349359 L 71.413446 71.648638 L 71.487459 71.648638 C 71.616982 71.441506 71.77426 71.253205 71.940789 71.074319 C 72.116571 70.895433 72.310855 70.735377 72.532895 70.612981 C 72.773438 70.471755 73.032484 70.368189 73.300781 70.292869 C 73.606086 70.208133 73.929893 70.170473 74.244449 70.170473 C 74.799548 70.170473 75.299137 70.283454 75.752467 70.490585 C 76.196546 70.697716 76.585115 71.017829 76.899671 71.441506 C 77.223479 71.855769 77.473273 72.373598 77.649054 72.994992 C 77.824836 73.616386 77.9081 74.341346 77.9081 75.160457 C 77.9081 75.979567 77.824836 76.713942 77.649054 77.335337 C 77.473273 77.956731 77.223479 78.483974 76.899671 78.898237 C 76.585115 79.321915 76.196546 79.642027 75.752467 79.858574 C 75.299137 80.05629 74.688528 80.178686 74.133429 80.178686 M 73.939145 71.497997 C 73.495066 71.497997 73.115748 71.563902 72.801192 71.705128 C 72.495888 71.836939 72.246094 72.044071 72.061061 72.317107 C 71.866776 72.590144 71.728002 72.938502 71.635485 73.343349 C 71.542969 73.823518 71.487459 74.313101 71.487459 74.793269 L 71.487459 75.160457 C 71.478207 75.6877 71.515214 76.214944 71.598479 76.742188 C 71.681743 77.194111 71.820518 77.580128 72.005551 77.90024 C 72.190584 78.201522 72.44963 78.446314 72.773438 78.60637 C 73.087993 78.766426 73.476562 78.851162 73.957648 78.851162 C 74.753289 78.851162 75.326891 78.53105 75.696957 77.890825 C 76.067023 77.250601 76.261308 76.33734 76.261308 75.141627 C 76.261308 73.917668 76.067023 73.004407 75.696957 72.401843 C 75.326891 71.799279 74.744038 71.497997 73.939145 71.497997 M 83.237048 78.869992 C 83.348067 78.869992 83.459087 78.860577 83.58861 78.851162 L 83.977179 78.804087 L 84.310238 78.738181 L 84.550781 78.681691 L 84.550781 79.896234 C 84.476768 79.924479 84.375 79.962139 84.245477 79.9998 C 84.125206 80.03746 83.995683 80.065705 83.86616 80.084535 C 83.718133 80.11278 83.579359 80.131611 83.422081 80.150441 C 83.274054 80.169271 83.126028 80.178686 82.978002 80.178686 C 82.607936 80.178686 82.274877 80.131611 81.969572 80.03746 C 81.664268 79.943309 81.386719 79.773838 81.164679 79.547877 C 80.94264 79.321915 80.766859 79.011218 80.637336 78.6252 C 80.507812 78.239183 80.443051 77.740184 80.443051 77.147035 L 80.443051 71.554487 L 79.083059 71.554487 L 79.083059 70.838942 L 80.443051 70.151643 L 81.127673 68.127404 L 82.052837 68.127404 L 82.052837 70.349359 L 84.504523 70.349359 L 84.504523 71.554487 L 82.07134 71.554487 L 82.07134 77.147035 C 82.07134 77.721354 82.173109 78.145032 82.34889 78.436899 C 82.515419 78.719351 82.839227 78.860577 83.255551 78.860577 " transform="matrix(0.422222,0,0,0.414894,0,0)"/>
</g>
</svg>
