<?xml version="1.0" encoding="UTF-8"?>
<svg xmlns="http://www.w3.org/2000/svg" xmlns:xlink="http://www.w3.org/1999/xlink" width="40px" height="40px" viewBox="0 0 40 40" version="1.1">
<g id="surface1">
<path style=" stroke:none;fill-rule:nonzero;fill:rgb(54.901963%,78.431374%,29.411766%);fill-opacity:1;" d="M 18.320312 0.535156 C 19.320312 -0.03125 20.59375 -0.0351562 21.570312 0.535156 L 36.5 8.949219 C 37.433594 9.476562 38.058594 10.515625 38.050781 11.59375 L 38.050781 28.46875 C 38.054688 29.589844 37.371094 30.652344 36.386719 31.167969 L 21.535156 39.546875 C 20.5 40.117188 19.238281 40.082031 18.234375 39.453125 L 13.78125 36.878906 C 13.476562 36.699219 13.136719 36.554688 12.921875 36.261719 C 13.109375 36.003906 13.449219 35.972656 13.722656 35.859375 C 14.34375 35.664062 14.910156 35.359375 15.480469 35.039062 C 15.625 34.941406 15.800781 34.976562 15.9375 35.066406 L 19.738281 37.265625 C 20.007812 37.421875 20.285156 37.214844 20.515625 37.082031 L 35.097656 28.855469 C 35.277344 28.765625 35.378906 28.578125 35.363281 28.378906 L 35.363281 11.667969 C 35.382812 11.441406 35.253906 11.238281 35.050781 11.144531 L 20.238281 2.804688 C 20.0625 2.683594 19.832031 2.683594 19.65625 2.804688 L 4.863281 11.164062 C 4.664062 11.253906 4.527344 11.457031 4.550781 11.679688 L 4.550781 28.394531 C 4.535156 28.589844 4.640625 28.777344 4.820312 28.863281 L 8.773438 31.09375 C 9.515625 31.492188 10.425781 31.71875 11.246094 31.425781 C 11.976562 31.148438 12.460938 30.445312 12.457031 29.664062 L 12.460938 13.050781 C 12.445312 12.804688 12.675781 12.601562 12.917969 12.625 L 14.816406 12.625 C 15.066406 12.621094 15.261719 12.886719 15.230469 13.132812 L 15.226562 29.851562 C 15.226562 31.335938 14.617188 32.949219 13.242188 33.679688 C 11.550781 34.554688 9.457031 34.371094 7.785156 33.527344 L 3.535156 31.179688 C 2.535156 30.679688 1.863281 29.597656 1.871094 28.480469 L 1.871094 11.605469 C 1.878906 10.488281 2.492188 9.460938 3.472656 8.925781 Z M 22.625 12.230469 C 24.785156 12.105469 27.09375 12.148438 29.039062 13.210938 C 30.542969 14.027344 31.375 15.738281 31.402344 17.410156 C 31.359375 17.636719 31.125 17.761719 30.910156 17.742188 C 30.285156 17.742188 29.65625 17.753906 29.03125 17.738281 C 28.765625 17.75 28.609375 17.503906 28.578125 17.269531 C 28.394531 16.46875 27.960938 15.679688 27.207031 15.292969 C 26.050781 14.714844 24.710938 14.742188 23.453125 14.753906 C 22.53125 14.804688 21.542969 14.882812 20.765625 15.421875 C 20.164062 15.832031 19.984375 16.671875 20.199219 17.328125 C 20.398438 17.804688 20.953125 17.957031 21.402344 18.101562 C 24.007812 18.78125 26.761719 18.726562 29.316406 19.609375 C 30.371094 19.976562 31.40625 20.683594 31.769531 21.792969 C 32.242188 23.273438 32.035156 25.046875 30.980469 26.234375 C 30.125 27.214844 28.882812 27.734375 27.636719 28.039062 C 25.984375 28.40625 24.269531 28.417969 22.589844 28.25 C 21.011719 28.070312 19.367188 27.65625 18.148438 26.582031 C 17.109375 25.675781 16.601562 24.265625 16.648438 22.90625 C 16.664062 22.675781 16.890625 22.515625 17.113281 22.535156 L 18.988281 22.535156 C 19.238281 22.515625 19.425781 22.734375 19.4375 22.972656 C 19.554688 23.722656 19.839844 24.535156 20.503906 24.972656 C 21.789062 25.800781 23.394531 25.742188 24.863281 25.765625 C 26.078125 25.710938 27.445312 25.695312 28.4375 24.890625 C 28.964844 24.433594 29.117188 23.667969 28.976562 23.007812 C 28.824219 22.449219 28.226562 22.191406 27.726562 22.007812 C 25.15625 21.195312 22.371094 21.488281 19.828125 20.570312 C 18.792969 20.203125 17.796875 19.515625 17.398438 18.453125 C 16.84375 16.953125 17.097656 15.09375 18.265625 13.945312 C 19.390625 12.800781 21.039062 12.359375 22.601562 12.203125 Z M 22.625 12.230469 "/>
</g>
</svg>
