<?xml version="1.0" encoding="UTF-8"?>
<svg xmlns="http://www.w3.org/2000/svg" xmlns:xlink="http://www.w3.org/1999/xlink" width="40px" height="40px" viewBox="0 0 40 40" version="1.1">
<defs>
<linearGradient id="linear0" gradientUnits="userSpaceOnUse" x1="811.526978" y1="574.89502" x2="665.255005" y2="573.731995" gradientTransform="matrix(0.202125,0,0,0.197611,-134.422054,-102.077341)">
<stop offset="0" style="stop-color:rgb(21.176471%,41.568627%,58.823529%);stop-opacity:1;"/>
<stop offset="1" style="stop-color:rgb(21.176471%,47.45098%,69.019608%);stop-opacity:1;"/>
</linearGradient>
<linearGradient id="linear1" gradientUnits="userSpaceOnUse" x1="862.823975" y1="642.176025" x2="573.276001" y2="642.176025" gradientTransform="matrix(0.202125,0,0,0.197611,-134.422054,-102.077341)">
<stop offset="0" style="stop-color:rgb(100%,78.431373%,21.176471%);stop-opacity:1;"/>
<stop offset="1" style="stop-color:rgb(100%,90.980392%,45.098039%);stop-opacity:1;"/>
</linearGradient>
</defs>
<g id="surface1">
<path style=" stroke:none;fill-rule:nonzero;fill:url(#linear0);" d="M 10.351562 5.519531 C 10.351562 2.828125 11.089844 1.363281 15.164062 0.664062 C 17.933594 0.191406 21.480469 0.132812 24.792969 0.664062 C 27.40625 1.085938 29.609375 2.992188 29.609375 5.519531 L 29.609375 14.402344 C 29.609375 17.007812 27.472656 19.140625 24.792969 19.140625 L 15.164062 19.140625 C 11.898438 19.140625 9.144531 21.863281 9.144531 24.941406 L 9.144531 29.203125 L 5.835938 29.203125 C 3.035156 29.203125 1.40625 27.230469 0.71875 24.46875 C -0.203125 20.757812 -0.164062 18.546875 0.71875 14.992188 C 1.488281 11.894531 3.9375 10.257812 6.738281 10.257812 L 19.980469 10.257812 L 19.980469 9.074219 L 10.351562 9.074219 Z M 10.351562 5.519531 "/>
<path style=" stroke:none;fill-rule:nonzero;fill:url(#linear1);" d="M 29.609375 33.941406 C 29.609375 36.632812 27.21875 37.996094 24.792969 38.679688 C 21.144531 39.703125 18.214844 39.546875 15.167969 38.679688 C 12.621094 37.953125 10.351562 36.46875 10.351562 33.941406 L 10.351562 25.0625 C 10.351562 22.503906 12.53125 20.320312 15.167969 20.320312 L 24.792969 20.320312 C 28 20.320312 30.8125 17.613281 30.8125 14.402344 L 30.8125 10.257812 L 34.421875 10.257812 C 37.226562 10.257812 38.546875 12.292969 39.238281 14.992188 C 40.199219 18.742188 40.242188 21.546875 39.238281 24.46875 C 38.265625 27.308594 37.222656 29.203125 34.421875 29.203125 L 19.980469 29.203125 L 19.980469 30.390625 L 29.609375 30.390625 Z M 29.609375 33.941406 "/>
<path style=" stroke:none;fill-rule:nonzero;fill:rgb(100%,100%,100%);fill-opacity:1;" d="M 12.757812 4.929688 C 12.757812 3.945312 13.566406 3.152344 14.5625 3.152344 C 15.558594 3.152344 16.367188 3.945312 16.367188 4.929688 C 16.367188 5.910156 15.558594 6.707031 14.5625 6.707031 C 13.566406 6.707031 12.757812 5.910156 12.757812 4.929688 Z M 23.589844 34.53125 C 23.589844 33.550781 24.398438 32.757812 25.394531 32.757812 C 26.394531 32.757812 27.199219 33.550781 27.199219 34.53125 C 27.199219 35.515625 26.394531 36.308594 25.394531 36.308594 C 24.398438 36.308594 23.589844 35.515625 23.589844 34.53125 Z M 23.589844 34.53125 "/>
</g>
</svg>
