<?xml version="1.0" encoding="UTF-8"?>
<svg xmlns="http://www.w3.org/2000/svg" xmlns:xlink="http://www.w3.org/1999/xlink" width="40px" height="40px" viewBox="0 0 40 40" version="1.1">
<g id="surface1">
<path style=" stroke:none;fill-rule:nonzero;fill:rgb(19.215687%,47.058824%,77.64706%);fill-opacity:1;" d="M 3.90625 0 L 36.09375 0 C 38.25 0 40 1.75 40 3.90625 L 40 36.09375 C 40 38.25 38.25 40 36.09375 40 L 3.90625 40 C 1.75 40 0 38.25 0 36.09375 L 0 3.90625 C 0 1.75 1.75 0 3.90625 0 Z M 3.90625 0 "/>
<path style=" stroke:none;fill-rule:nonzero;fill:rgb(19.215687%,47.058824%,77.64706%);fill-opacity:1;" d="M 3.90625 0 L 36.09375 0 C 38.25 0 40 1.75 40 3.90625 L 40 36.09375 C 40 38.25 38.25 40 36.09375 40 L 3.90625 40 C 1.75 40 0 38.25 0 36.09375 L 0 3.90625 C 0 1.75 1.75 0 3.90625 0 Z M 3.90625 0 "/>
<path style=" stroke:none;fill-rule:evenodd;fill:rgb(100%,100%,100%);fill-opacity:1;" d="M 24.761719 31.828125 L 24.761719 35.742188 C 25.398438 36.066406 26.148438 36.3125 27.015625 36.472656 C 27.886719 36.636719 28.800781 36.71875 29.761719 36.71875 C 30.699219 36.71875 31.589844 36.628906 32.433594 36.449219 C 33.277344 36.269531 34.015625 35.976562 34.652344 35.5625 C 35.289062 35.152344 35.792969 34.613281 36.164062 33.949219 C 36.535156 33.285156 36.71875 32.464844 36.71875 31.488281 C 36.71875 30.777344 36.613281 30.15625 36.402344 29.625 C 36.1875 29.089844 35.882812 28.617188 35.484375 28.199219 C 35.085938 27.785156 34.605469 27.410156 34.046875 27.082031 C 33.488281 26.75 32.859375 26.441406 32.15625 26.148438 C 31.644531 25.933594 31.183594 25.730469 30.777344 25.53125 C 30.367188 25.328125 30.023438 25.125 29.738281 24.917969 C 29.453125 24.710938 29.230469 24.492188 29.078125 24.257812 C 28.921875 24.027344 28.84375 23.761719 28.84375 23.46875 C 28.84375 23.203125 28.914062 22.960938 29.050781 22.742188 C 29.191406 22.527344 29.386719 22.34375 29.640625 22.1875 C 29.890625 22.03125 30.203125 21.910156 30.570312 21.828125 C 30.933594 21.742188 31.34375 21.699219 31.792969 21.699219 C 32.117188 21.699219 32.460938 21.722656 32.824219 21.769531 C 33.1875 21.820312 33.550781 21.894531 33.917969 21.996094 C 34.285156 22.097656 34.640625 22.226562 34.988281 22.382812 C 35.335938 22.539062 35.65625 22.714844 35.949219 22.921875 L 35.949219 19.265625 C 35.351562 19.039062 34.703125 18.867188 34 18.757812 C 33.292969 18.648438 32.484375 18.59375 31.570312 18.59375 C 30.640625 18.59375 29.761719 18.695312 28.929688 18.894531 C 28.097656 19.09375 27.367188 19.40625 26.734375 19.828125 C 26.105469 20.25 25.605469 20.792969 25.238281 21.449219 C 24.871094 22.101562 24.6875 22.886719 24.6875 23.800781 C 24.6875 24.964844 25.023438 25.960938 25.695312 26.78125 C 26.367188 27.605469 27.390625 28.300781 28.757812 28.871094 C 29.296875 29.09375 29.796875 29.308594 30.261719 29.519531 C 30.726562 29.730469 31.128906 29.953125 31.46875 30.179688 C 31.804688 30.40625 32.074219 30.65625 32.269531 30.925781 C 32.464844 31.195312 32.5625 31.5 32.5625 31.84375 C 32.5625 32.09375 32.5 32.328125 32.378906 32.546875 C 32.257812 32.761719 32.070312 32.949219 31.820312 33.105469 C 31.574219 33.265625 31.261719 33.390625 30.894531 33.480469 C 30.523438 33.570312 30.085938 33.613281 29.589844 33.613281 C 28.742188 33.613281 27.902344 33.464844 27.070312 33.167969 C 26.242188 32.871094 25.46875 32.425781 24.761719 31.828125 Z M 18.1875 22.195312 L 23.203125 22.195312 L 23.203125 18.984375 L 9.21875 18.984375 L 9.21875 22.195312 L 14.210938 22.195312 L 14.210938 36.484375 L 18.1875 36.484375 Z M 18.1875 22.195312 "/>
</g>
</svg>
