<?xml version="1.0" encoding="UTF-8"?>
<svg xmlns="http://www.w3.org/2000/svg" xmlns:xlink="http://www.w3.org/1999/xlink" width="40px" height="40px" viewBox="0 0 40 40" version="1.1">
<g id="surface1">
<path style=" stroke:none;fill-rule:nonzero;fill:rgb(11.372549%,63.137257%,94.901961%);fill-opacity:1;" d="M 6 0 L 34 0 C 37.3125 0 40 2.6875 40 6 L 40 34 C 40 37.3125 37.3125 40 34 40 L 6 40 C 2.6875 40 0 37.3125 0 34 L 0 6 C 0 2.6875 2.6875 0 6 0 Z M 6 0 "/>
<path style=" stroke:none;fill-rule:nonzero;fill:rgb(100%,100%,100%);fill-opacity:1;" d="M 34.140625 11.875 C 33.203125 12.34375 32.109375 12.65625 31.015625 12.8125 C 32.1875 12.109375 33.046875 11.015625 33.515625 9.6875 C 32.421875 10.3125 31.25 10.78125 30 11.015625 C 28.253906 9.226562 25.535156 8.804688 23.332031 9.980469 C 21.125 11.15625 19.957031 13.648438 20.46875 16.09375 C 16.09375 15.859375 11.875 13.828125 9.140625 10.3125 C 8.390625 11.511719 8.148438 12.964844 8.46875 14.34375 C 8.792969 15.722656 9.652344 16.914062 10.859375 17.65625 C 10 17.65625 9.140625 17.5 8.359375 17.109375 C 8.4375 19.6875 10.234375 21.953125 12.734375 22.5 C 11.953125 22.734375 11.09375 22.734375 10.234375 22.578125 C 11.015625 24.84375 13.125 26.40625 15.46875 26.484375 C 13.203125 28.359375 10.15625 29.21875 7.265625 28.75 C 12.195312 32.039062 18.5625 32.238281 23.6875 29.269531 C 28.8125 26.300781 31.808594 20.675781 31.40625 14.765625 C 32.5 13.984375 33.4375 13.046875 34.140625 11.875 "/>
</g>
</svg>
