<?xml version="1.0" encoding="UTF-8"?>
<svg xmlns="http://www.w3.org/2000/svg" xmlns:xlink="http://www.w3.org/1999/xlink" width="40px" height="40px" viewBox="0 0 40 40" version="1.1">
<g id="surface1">
<path style=" stroke:none;fill-rule:nonzero;fill:rgb(92.941177%,11.372549%,14.117648%);fill-opacity:1;" d="M 6 0 L 34 0 C 37.3125 0 40 2.6875 40 6 L 40 34 C 40 37.3125 37.3125 40 34 40 L 6 40 C 2.6875 40 0 37.3125 0 34 L 0 6 C 0 2.6875 2.6875 0 6 0 Z M 6 0 "/>
<path style=" stroke:none;fill-rule:nonzero;fill:rgb(100%,100%,100%);fill-opacity:1;" d="M 33.359375 13.203125 C 33.046875 12.03125 32.03125 11.09375 30.859375 10.78125 C 28.203125 10.078125 12.1875 10 9.140625 10.78125 C 7.96875 11.09375 6.953125 12.03125 6.640625 13.203125 C 5.9375 16.171875 5.859375 23.75 6.640625 26.796875 C 6.953125 27.96875 7.96875 28.90625 9.140625 29.21875 C 11.953125 30 27.96875 30 30.859375 29.21875 C 32.03125 28.90625 33.046875 27.96875 33.359375 26.796875 C 34.0625 23.984375 34.0625 16.09375 33.359375 13.203125 "/>
<path style=" stroke:none;fill-rule:nonzero;fill:rgb(92.941177%,11.372549%,14.117648%);fill-opacity:1;" d="M 17.1875 15.859375 L 17.1875 24.140625 L 24.453125 20 "/>
</g>
</svg>
